<mxfile host="app.diagrams.net" modified="2024-01-08T09:32:38.958Z" agent="Mozilla/5.0 (Windows NT 10.0; Win64; x64) AppleWebKit/537.36 (KHTML, like Gecko) Chrome/120.0.0.0 Safari/537.36" etag="Wnd68Qo_crNsCFJ_gKb6" version="21.8.0" type="github">
  <diagram name="Página-1" id="5PtJ6LBr9ZZf3Ozsw_Uv">
    <mxGraphModel dx="794" dy="446" grid="1" gridSize="10" guides="1" tooltips="1" connect="1" arrows="1" fold="1" page="1" pageScale="1" pageWidth="827" pageHeight="1169" math="0" shadow="0">
      <root>
        <mxCell id="0" />
        <mxCell id="1" parent="0" />
        <mxCell id="2VVXMc3ddV2z-ubYP3Mv-1" value="Recurso Especial" style="rounded=0;whiteSpace=wrap;html=1;" vertex="1" parent="1">
          <mxGeometry x="40" y="20" width="120" height="70" as="geometry" />
        </mxCell>
        <mxCell id="2VVXMc3ddV2z-ubYP3Mv-5" value="" style="endArrow=classic;html=1;rounded=0;exitX=0.5;exitY=1;exitDx=0;exitDy=0;" edge="1" parent="1" source="2VVXMc3ddV2z-ubYP3Mv-1" target="2VVXMc3ddV2z-ubYP3Mv-6">
          <mxGeometry width="50" height="50" relative="1" as="geometry">
            <mxPoint x="380" y="260" as="sourcePoint" />
            <mxPoint x="380" y="220" as="targetPoint" />
          </mxGeometry>
        </mxCell>
        <mxCell id="2VVXMc3ddV2z-ubYP3Mv-6" value="Admitido?" style="rhombus;whiteSpace=wrap;html=1;" vertex="1" parent="1">
          <mxGeometry x="45" y="150" width="110" height="100" as="geometry" />
        </mxCell>
        <mxCell id="2VVXMc3ddV2z-ubYP3Mv-10" value="" style="endArrow=classic;html=1;rounded=0;exitX=1;exitY=0.5;exitDx=0;exitDy=0;" edge="1" parent="1" source="2VVXMc3ddV2z-ubYP3Mv-6">
          <mxGeometry width="50" height="50" relative="1" as="geometry">
            <mxPoint x="380" y="260" as="sourcePoint" />
            <mxPoint x="220" y="200" as="targetPoint" />
            <Array as="points">
              <mxPoint x="190" y="200" />
            </Array>
          </mxGeometry>
        </mxCell>
        <mxCell id="2VVXMc3ddV2z-ubYP3Mv-11" value="" style="endArrow=classic;html=1;rounded=0;exitX=0.5;exitY=1;exitDx=0;exitDy=0;" edge="1" parent="1" source="2VVXMc3ddV2z-ubYP3Mv-6">
          <mxGeometry width="50" height="50" relative="1" as="geometry">
            <mxPoint x="100" y="240" as="sourcePoint" />
            <mxPoint x="100" y="350" as="targetPoint" />
            <Array as="points" />
          </mxGeometry>
        </mxCell>
        <mxCell id="2VVXMc3ddV2z-ubYP3Mv-12" value="Sim" style="text;strokeColor=none;align=center;fillColor=none;html=1;verticalAlign=middle;whiteSpace=wrap;rounded=0;" vertex="1" parent="1">
          <mxGeometry x="105" y="270" width="60" height="30" as="geometry" />
        </mxCell>
        <mxCell id="2VVXMc3ddV2z-ubYP3Mv-13" value="Não" style="text;html=1;align=center;verticalAlign=middle;resizable=0;points=[];autosize=1;strokeColor=none;fillColor=none;" vertex="1" parent="1">
          <mxGeometry x="160" y="170" width="50" height="30" as="geometry" />
        </mxCell>
        <mxCell id="2VVXMc3ddV2z-ubYP3Mv-15" value="Remetido ao STJ para julgamento." style="rounded=0;whiteSpace=wrap;html=1;" vertex="1" parent="1">
          <mxGeometry x="45" y="360" width="120" height="60" as="geometry" />
        </mxCell>
        <mxCell id="2VVXMc3ddV2z-ubYP3Mv-25" value="" style="edgeStyle=orthogonalEdgeStyle;rounded=0;orthogonalLoop=1;jettySize=auto;html=1;" edge="1" parent="1" source="2VVXMc3ddV2z-ubYP3Mv-18">
          <mxGeometry relative="1" as="geometry">
            <mxPoint x="430" y="200" as="targetPoint" />
          </mxGeometry>
        </mxCell>
        <mxCell id="2VVXMc3ddV2z-ubYP3Mv-27" value="" style="edgeStyle=orthogonalEdgeStyle;rounded=0;orthogonalLoop=1;jettySize=auto;html=1;" edge="1" parent="1" source="2VVXMc3ddV2z-ubYP3Mv-18">
          <mxGeometry relative="1" as="geometry">
            <mxPoint x="285" y="350" as="targetPoint" />
          </mxGeometry>
        </mxCell>
        <mxCell id="2VVXMc3ddV2z-ubYP3Mv-18" value="Se enquadra na exceção?" style="rhombus;whiteSpace=wrap;html=1;" vertex="1" parent="1">
          <mxGeometry x="220" y="140" width="130" height="120" as="geometry" />
        </mxCell>
        <mxCell id="2VVXMc3ddV2z-ubYP3Mv-23" value="Exceção: inadmissão com base em repetitivo" style="text;html=1;align=center;verticalAlign=middle;resizable=0;points=[];autosize=1;strokeColor=none;fillColor=none;" vertex="1" parent="1">
          <mxGeometry x="180" y="110" width="260" height="30" as="geometry" />
        </mxCell>
        <mxCell id="2VVXMc3ddV2z-ubYP3Mv-28" value="Não" style="text;html=1;align=center;verticalAlign=middle;resizable=0;points=[];autosize=1;strokeColor=none;fillColor=none;" vertex="1" parent="1">
          <mxGeometry x="380" y="160" width="50" height="30" as="geometry" />
        </mxCell>
        <mxCell id="2VVXMc3ddV2z-ubYP3Mv-29" value="Sim" style="text;strokeColor=none;align=center;fillColor=none;html=1;verticalAlign=middle;whiteSpace=wrap;rounded=0;" vertex="1" parent="1">
          <mxGeometry x="280" y="280" width="60" height="30" as="geometry" />
        </mxCell>
        <mxCell id="2VVXMc3ddV2z-ubYP3Mv-30" value="Caso de agravo interno - art. 1.021, CPC" style="rounded=0;whiteSpace=wrap;html=1;" vertex="1" parent="1">
          <mxGeometry x="230" y="360" width="120" height="60" as="geometry" />
        </mxCell>
        <mxCell id="2VVXMc3ddV2z-ubYP3Mv-31" value="Agravo em REsp" style="rounded=0;whiteSpace=wrap;html=1;" vertex="1" parent="1">
          <mxGeometry x="440" y="170" width="120" height="60" as="geometry" />
        </mxCell>
        <mxCell id="2VVXMc3ddV2z-ubYP3Mv-32" value="Súmula&lt;span style=&quot;color: rgba(0, 0, 0, 0.8); font-family: Roboto, system-ui, -apple-system, &amp;quot;Segoe UI&amp;quot;, Oxygen, Ubuntu, Cantarell, &amp;quot;Open Sans&amp;quot;, &amp;quot;Helvetica Neue&amp;quot;, sans-serif; font-size: 14px; text-align: left; background-color: rgb(255, 255, 255);&quot;&gt;&amp;nbsp;182 do STJ&lt;/span&gt;" style="text;html=1;align=center;verticalAlign=middle;resizable=0;points=[];autosize=1;strokeColor=none;fillColor=none;" vertex="1" parent="1">
          <mxGeometry x="580" y="150" width="130" height="30" as="geometry" />
        </mxCell>
        <mxCell id="2VVXMc3ddV2z-ubYP3Mv-33" value="Súmula&lt;span style=&quot;color: rgba(0, 0, 0, 0.8); font-family: Roboto, system-ui, -apple-system, &amp;quot;Segoe UI&amp;quot;, Oxygen, Ubuntu, Cantarell, &amp;quot;Open Sans&amp;quot;, &amp;quot;Helvetica Neue&amp;quot;, sans-serif; font-size: 14px; text-align: left; background-color: rgb(255, 255, 255);&quot;&gt;&amp;nbsp;283 do STF&lt;/span&gt;" style="text;html=1;align=center;verticalAlign=middle;resizable=0;points=[];autosize=1;strokeColor=none;fillColor=none;" vertex="1" parent="1">
          <mxGeometry x="575" y="180" width="140" height="30" as="geometry" />
        </mxCell>
        <mxCell id="2VVXMc3ddV2z-ubYP3Mv-34" value="Súmula&lt;span style=&quot;color: rgba(0, 0, 0, 0.8); font-family: Roboto, system-ui, -apple-system, &amp;quot;Segoe UI&amp;quot;, Oxygen, Ubuntu, Cantarell, &amp;quot;Open Sans&amp;quot;, &amp;quot;Helvetica Neue&amp;quot;, sans-serif; font-size: 14px; text-align: left; background-color: rgb(255, 255, 255);&quot;&gt;&amp;nbsp;83 do STJ&lt;/span&gt;" style="text;html=1;align=center;verticalAlign=middle;resizable=0;points=[];autosize=1;strokeColor=none;fillColor=none;" vertex="1" parent="1">
          <mxGeometry x="575" y="210" width="130" height="30" as="geometry" />
        </mxCell>
      </root>
    </mxGraphModel>
  </diagram>
</mxfile>
